# xmcd CD database file
#
# Track frame offsets:
#	150
#	19912
#	38740
#	56755
#
# Disc length: 1017 seconds
#
# Revision: 0
# Processed by: cddbd v1.5.1PL0 Copyright (c) Steve Scherf et al.
# Submitted via: CDex 1.51
#
DISCID=2d03f704
DTITLE=愛内里菜 - Boom-Boom-Boom
DYEAR=2004
DGENRE=JPop
TTITLE0=Boom-Boom-Boom
TTITLE1=ALRIGHT
TTITLE2=ROCK STEADY
TTITLE3=Boom-Boom-Boom -instrumental-
EXTD=YEAR: 2004
EXTT0=
EXTT1=
EXTT2=
EXTT3=
PLAYORDER=
